<svg xmlns="http://www.w3.org/2000/svg" xmlns:xlink="http://www.w3.org/1999/xlink" version="1.1" x="0px" y="0px" viewBox="0 0 100 125" enable-background="new 0 0 100 100" xml:space="preserve"><g enable-background="new    "><g><g><rect x="5" y="45" width="2" height="11"/></g></g></g><g enable-background="new    "><g><g><rect x="8" y="48" width="2" height="5"/></g></g></g><g enable-background="new    "><g><g><rect x="11" y="49" width="2" height="3"/></g></g></g><g enable-background="new    "><g><g><rect x="14" y="48" width="2" height="5"/></g></g></g><g enable-background="new    "><g><g><rect x="17" y="45" width="2" height="11"/></g></g></g><g enable-background="new    "><g><g><rect x="20" y="30" width="2" height="41"/></g></g></g><g enable-background="new    "><g><g><rect x="23" y="34" width="2" height="33"/></g></g></g><g enable-background="new    "><g><g><rect x="26" y="22" width="2" height="57"/></g></g></g><g enable-background="new    "><g><g><rect x="29" y="25" width="2" height="51"/></g></g></g><g enable-background="new    "><g><g><rect x="32" y="6" width="2" height="88"/></g></g></g><g enable-background="new    "><g><g><rect x="35" y="11" width="2" height="79"/></g></g></g><g enable-background="new    "><g><g><rect x="38" y="9" width="2" height="83"/></g></g></g><g enable-background="new    "><g><g><rect x="41" y="23" width="2" height="55"/></g></g></g><g enable-background="new    "><g><g><rect x="44" y="34" width="2" height="33"/></g></g></g><g enable-background="new    "><g><g><rect x="47" y="43" width="2" height="15"/></g></g></g><g enable-background="new    "><g><g><rect x="50" y="37" width="2" height="27"/></g></g></g><g enable-background="new    "><g><g><rect x="53" y="33" width="2" height="35"/></g></g></g><g enable-background="new    "><g><g><rect x="56" y="46" width="2" height="9"/></g></g></g><g enable-background="new    "><g><g><rect x="59" y="24" width="2" height="53"/></g></g></g><g enable-background="new    "><g><g><rect x="62" y="36" width="2" height="29"/></g></g></g><g enable-background="new    "><g><g><rect x="65" y="44" width="2" height="13"/></g></g></g><g enable-background="new    "><g><g><rect x="68" y="41" width="2" height="19"/></g></g></g><g enable-background="new    "><g><g><rect x="71" y="44" width="2" height="13"/></g></g></g><g enable-background="new    "><g><g><rect x="74" y="46" width="2" height="9"/></g></g></g><g enable-background="new    "><g><g><rect x="77" y="48" width="2" height="5"/></g></g></g><g enable-background="new    "><g><g><rect x="80" y="38" width="2" height="25"/></g></g></g><g enable-background="new    "><g><g><rect x="83" y="46" width="2" height="9"/></g></g></g><g enable-background="new    "><g><g><rect x="86" y="47" width="2" height="7"/></g></g></g><g enable-background="new    "><g><g><rect x="89" y="49" width="2" height="3"/></g></g></g><g enable-background="new    "><g><g><rect x="92" y="46" width="2" height="9"/></g></g></g><g enable-background="new    "><g><g><rect x="5" y="50" width="90" height="1"/></g></g></g><text x="0" y="115" fill="#000000" font-size="5px" font-weight="bold" font-family="'Helvetica Neue', Helvetica, Arial-Unicode, Arial, Sans-serif">Created by Rabee Balakrishnan</text><text x="0" y="120" fill="#000000" font-size="5px" font-weight="bold" font-family="'Helvetica Neue', Helvetica, Arial-Unicode, Arial, Sans-serif">from the Noun Project</text></svg>