<svg xmlns="http://www.w3.org/2000/svg" xmlns:xlink="http://www.w3.org/1999/xlink" version="1.1" x="0px" y="0px" viewBox="0 0 144 180" enable-background="new 0 0 144 144" xml:space="preserve"><path fill="#000000" d="M124.8,56.4c-0.7-0.9-17.3-20-37.4-23.9c-0.4-0.1-0.9-0.1-1.3-0.1c-3.2,0-6.6,2.2-9.9,4.2  c-1.6,1-4,2.6-4.8,2.6c-0.9-0.1-3.6-1.7-5.2-2.6c-3.3-2-6.9-4-10.1-4c-0.6,0-1,0-1.6,0.1C34.4,37,18.3,57,17.7,57.9  c-1.3,1.6-1,3.9,0.4,5.2c0.6,0.4,8.8,7.3,22.2,12.8v11.4c0,17.1,13.8,31,31,31s31-13.8,31-31V76.6c14.1-6,22-14.7,22.5-15.1  C126,60,126,57.9,124.8,56.4z M94.5,87.1c0,13-10.4,23.5-23.4,23.5s-23.5-10.5-23.5-23.5V70.6l0,0c0-5.8,4.9-8.4,9.5-8.4  c4,0,8.1,1.9,11.4,5.2v16.1c0,1.4,1.3,2.6,2.7,2.6c1.4,0,2.7-1.2,2.7-2.6V67.4c3.3-3.3,7.3-5.2,11.4-5.2c4.6,0,9.2,2.6,9.2,8.4V87.1  z M102,68.4c-1-7.9-7.9-13.7-16.7-13.7c-4.9,0-9.8,1.7-14,5c-4.2-3.3-9.1-5-14-5c-8.6,0-15.4,5.5-16.7,13.1  c-6.6-2.9-11.5-6-14.5-8.1c5-5.5,16.7-16.7,30-19.6c1.2,0,4.3,1.9,6.3,3c3.3,2,6.2,3.6,8.9,3.6c2.7,0,5.6-1.7,8.8-3.7  c1.7-1,4.9-3,5.8-3c13.5,2.6,25.8,13.7,30.8,18.7C113.9,61.2,109,65.1,102,68.4z"/><path fill="#000000" d="M82.2,100.1c-4.2,0-7.5-3.5-7.5-7.5c0-3.5,4.6-10.4,5.9-12.4c0.7-1,2.4-1,3.2,0c1.4,2,5.9,8.9,5.9,12.4  C89.7,96.6,86.4,100.1,82.2,100.1z M82.2,84.8c-2,3.2-3.6,6.5-3.6,7.6c0,2,1.6,3.6,3.6,3.6s3.6-1.6,3.6-3.6  C85.8,91.3,84.1,88,82.2,84.8z"/><text x="0" y="159" fill="#000000" font-size="5px" font-weight="bold" font-family="'Helvetica Neue', Helvetica, Arial-Unicode, Arial, Sans-serif">Created by heathersabrina</text><text x="0" y="164" fill="#000000" font-size="5px" font-weight="bold" font-family="'Helvetica Neue', Helvetica, Arial-Unicode, Arial, Sans-serif">from the Noun Project</text></svg>