<svg xmlns="http://www.w3.org/2000/svg" xmlns:xlink="http://www.w3.org/1999/xlink" version="1.1" x="0px" y="0px" viewBox="0 0 512 640" style="enable-background:new 0 0 512 512;" xml:space="preserve"><path d="M484,256.4l3.6-14.2c3-11.8-2.7-24.2-13.6-29.6l-2-1c-12.9-6.4-28.5-1.2-34.9,11.6c-4.2,8.4-3.6,18.3,1.6,26.1l5.4,8.1  l5.6,72.9c1.4,18.4-3.9,36.7-15,51.4l-3.9,5.2l-10.8-5.4v-12.6l2.8-5.6c8.7-17.4,11.9-37,9.1-56.2l-0.1-0.8  c-2.6-17.3-17.4-30.2-34.9-30.3h-1.7c-17.5,0.1-32.3,12.9-34.9,30.2l-0.1,0.9c-2.8,19.2,0.4,38.8,9.1,56.2l2.8,5.6v11.8l-13.8,2.8  c-15.8,3.1-29.2,13.3-36.3,27.7l-4.1,8.1l-25.9-6.5v-27.2c15.5-16,26.3-35.9,31.2-57.6l8.2-2.5c5.1-1.5,8.6-6.2,8.6-11.5v-24.3  c0-6-4.5-11.1-10.5-11.9c-0.1-7-0.5-14-1.4-20.9l-4.2-33.4c-0.3-2.2-2.3-3.7-4.5-3.5c-0.9,0.1-1.7,0.5-2.3,1.1  c-14.6,14.7-34.4,22.9-55.1,22.8h-12.8c-23.2,0.1-44.2,13.5-54.1,34.4l-0.5-0.1c-6.5-1.4-12.9,2.6-14.3,9.1  c-0.2,0.9-0.3,1.7-0.3,2.6v24.3c0,5.2,3.3,9.8,8.2,11.4l2.1,0.7c0.1,0.4,0.1,0.9,0.2,1.3c3.6,21.9,13.9,42.1,29.4,58v27.2l-25.9,6.5  l-4.1-8.1c-7.1-14.4-20.6-24.6-36.3-27.7l-13.8-2.8v-11.8l7.3-14.6c5.8-11.5,7.9-24.5,6-37.2l-5.4-37.7c-0.3-2-2-3.4-4-3.4h-28  c-18,0.1-33.3,13.3-35.9,31.2c-2.8,19.2,0.4,38.8,9.1,56.2l2.8,5.6v12.6l-10.8,5.4l-4.1-5.4c-11-14.6-16.3-32.8-15-51l5.8-81.1  l6.2-9.3c8.4-12.6,5-29.6-7.6-38c-9.7-6.5-22.4-6.1-31.7,0.9l-0.8,0.6c-8.8,6.6-12.8,17.9-10.2,28.6l4.1,16.3L21.3,348  c-0.9,13.6,1.5,27.2,7.1,39.7l23.5,52.9L44,495.4l7.9,1.1l8-56c0.1-0.7,0-1.5-0.3-2.2l-14.1-31.8L64,375.8c2,3.7,4.2,7.2,6.7,10.5  l6.1,8.1c1.2,1.5,3.3,2,5,1.2l12.7-6.4l2.8,4.5c6.4,10.3,20,13.4,30.3,7c2.8-1.8,5.2-4.2,7-7l3.3-5.3l14.3,2.9  c13.3,2.6,24.7,11.3,30.7,23.5l3.3,6.6c-18.5,5.1-33.5,18.8-40.3,36.8l-13.7,36.5l7.5,2.8l13.7-36.5c6-16,19.5-28,36.1-32.2  l33.7-8.4c19.7,13.7,45.9,13.7,65.7,0l33.7,8.4c16.6,4.1,30.1,16.2,36.1,32.2l13.7,36.5l7.5-2.8l-13.7-36.5  c-6.8-18-21.7-31.7-40.3-36.8l3.3-6.6c6-12.2,17.4-20.8,30.7-23.5l14.3-2.9l3.3,5.3c6.4,10.3,20,13.4,30.3,7c2.8-1.8,5.2-4.2,7-7  l2.8-4.5l12.7,6.4c1.7,0.9,3.8,0.4,5-1.2l5.9-7.9c2.6-3.4,4.8-7,6.8-10.8l18.5,30.8l-14.1,31.8c-0.3,0.7-0.4,1.4-0.3,2.2l8,56  l7.9-1.1l-7.8-54.9l23.4-52.7c5.6-12.6,8-26.4,7-40.1L484,256.4z M41.6,397.6l-5.9-13.2c-5-11.3-7.2-23.6-6.4-35.9L36,248.3  c0-0.4,0-0.8-0.1-1.2l-4.2-16.9c-1.9-7.6,0.9-15.6,7.2-20.3l0.8-0.6c8.6-6.4,20.8-4.7,27.2,3.9c4.9,6.6,5.2,15.6,0.6,22.4l-6.8,10.2  c-0.4,0.6-0.6,1.2-0.7,1.9l-5.9,82.2c-0.9,12.6,1.1,25.3,5.8,37.1L41.6,397.6z M88,308.3c2-13.9,13.9-24.2,28-24.3h24.5l4.9,34.3  c1.6,11.1-0.2,22.4-5.3,32.5L133,365c-9,4.2-19.3,4.7-28.7,1.6l-5.5-1.8l-2.5-5C88.4,343.9,85.5,325.9,88,308.3z M127.8,389.5  c-4.1,6.5-12.7,8.5-19.2,4.4c-1.8-1.1-3.3-2.6-4.4-4.4l-4.2-6.7v-9.3l1.8,0.6c4.8,1.6,9.9,2.4,15,2.4c5.2,0,10.4-0.9,15.3-2.6v8.9  L127.8,389.5z M332,289.8V314c0,1.8-1.2,3.3-2.9,3.8l-21.1,6.3v-34.5l19.2-3.8c2.2-0.4,4.3,1,4.7,3.1C332,289.2,332,289.5,332,289.8  z M232.1,294.8c15.8,3.5,32.1,3.7,47.9,0.5l20-4v35.3l-11.2,3.4c-21.3,6.4-44.1,6.1-65.2-1l-3.6-1.2v-35.7L232.1,294.8z M249.3,252  h12.8c20.1,0.1,39.5-7,54.9-19.8l3.2,25.8c0.9,6.9,1.3,13.9,1.3,20.9l-43.1,8.6c-14.7,3-29.9,2.8-44.6-0.5l-30.6-6.8  C212.1,262.9,229.9,252.1,249.3,252z M188,314.2V290c0-2.2,1.8-4,4-4c0.3,0,0.6,0,0.9,0.1l19.1,4.3v34.8l-21.3-7.1  C189.1,317.5,188,316,188,314.2z M199,329.2l22.1,7.4c22.7,7.6,47.1,8,70,1.1l23.2-7c-5.1,19-15,36.3-28.9,50.3  c-17.5,12.9-41.3,12.8-58.8,0l-0.1-0.1C212.4,366.8,202.8,348.8,199,329.2z M228,413.9v-22.6c17.4,9.7,38.6,9.7,56,0v22.6  C267.1,425.5,244.9,425.5,228,413.9z M368.1,308.3l0.1-0.9c2-13.4,13.5-23.3,27-23.4h1.7c13.5,0.1,25,10,27,23.4l0.1,0.8  c2.6,17.6-0.3,35.6-8.3,51.5l-2.5,5l-5.5,1.8c-9.4,3.2-19.7,2.6-28.7-1.6l-2.6-5.2C368.4,343.9,365.5,325.9,368.1,308.3z   M407.8,389.5c-4.1,6.5-12.7,8.5-19.2,4.4c-1.8-1.1-3.3-2.6-4.4-4.4l-4.2-6.7V374c4.9,1.7,10.1,2.6,15.3,2.6c5.1,0,10.1-0.8,15-2.4  l1.8-0.6v9.3L407.8,389.5z M476.2,384.6l-5.8,13L452,367c4.7-11.8,6.6-24.6,5.6-37.3l-5.7-74c-0.1-0.7-0.3-1.3-0.7-1.9l-6-9  c-5.5-8.3-3.3-19.5,5-25c5.4-3.6,12.3-4,18.1-1.1l2,1c7.6,3.7,11.5,12.3,9.4,20.5l-3.7,14.9c-0.1,0.4-0.1,0.8-0.1,1.3l6.6,92.1  C483.5,360.8,481.3,373.2,476.2,384.6z"/><path d="M131.9,256.8l8-40c0.1-0.6,0.1-1.2,0-1.8l-3.7-14.9c-2.1-8.2,1.8-16.8,9.4-20.5l2-1c8.9-4.5,19.7-0.8,24.2,8.1  c2.9,5.8,2.5,12.7-1.1,18.1l-6,9c-0.4,0.7-0.7,1.4-0.7,2.2v40h8v-38.8l5.3-8c8-12,4.7-28.1-7.2-36.1c-7.8-5.2-17.7-5.8-26.1-1.6  l-2,1c-11,5.4-16.6,17.8-13.6,29.6l3.5,14l-7.8,39.1L131.9,256.8z"/><path d="M250,140.5l-2-1c-12.9-6.4-28.5-1.2-34.9,11.6c-4.2,8.4-3.6,18.3,1.6,26.1l5.3,8V224h8v-40c0-0.8-0.2-1.6-0.7-2.2l-6-9  c-5.5-8.3-3.3-19.5,5-25c5.4-3.6,12.3-4,18.1-1.1l2,1c7.6,3.7,11.5,12.3,9.4,20.5l-3.7,14.9c-0.1,0.6-0.2,1.2,0,1.8l8,40l7.8-1.6  l-7.8-39.1l3.5-14C266.6,158.3,260.9,145.9,250,140.5z"/><path d="M346,132.5l-2-1c-12.9-6.4-28.5-1.2-34.9,11.6c-4.2,8.4-3.6,18.3,1.6,26.1l5.3,8V200h8v-24c0-0.8-0.2-1.6-0.7-2.2l-6-9  c-5.5-8.3-3.3-19.5,5-25c5.4-3.6,12.3-4,18.1-1.1l2,1c7.6,3.7,11.5,12.3,9.4,20.5l-3.7,14.9c-0.1,0.4-0.1,0.9-0.1,1.3l8,88l8-0.7  l-7.9-87.3l3.5-14.2C362.6,150.3,356.9,137.9,346,132.5z"/><path d="M396,256.4l8-80c0-0.5,0-0.9-0.1-1.4l-3.7-14.9c-2.1-8.2,1.8-16.8,9.4-20.5l2-1c8.9-4.5,19.7-0.8,24.2,8.1  c2.9,5.8,2.5,12.7-1.1,18.1l-6,9c-0.4,0.7-0.7,1.4-0.7,2.2v16h8v-14.8l5.3-8c8-12,4.7-28.1-7.2-36.1c-7.8-5.2-17.7-5.8-26.1-1.6  l-2,1c-11,5.4-16.6,17.8-13.6,29.6l3.5,14.2l-7.9,79.3L396,256.4z"/><path d="M491.4,109.5c-20.7-26.5-53.4-48.9-94.5-64.8C354.9,28.6,306.2,20,256,20s-98.9,8.6-140.9,24.8  C74,60.7,41.3,83.1,20.6,109.5c-0.6,0.7-0.9,1.6-0.9,2.5l0.3,64l8,0l-0.3-62.6c5-6.2,10.4-11.9,16.3-17.3c0,3,0.7,5.9,2,8.6  l6.9,14.1l23.3,74.3l7.6-2.4l-22.4-71.3l22.7-11l40.6,54l6.4-4.8l-42.4-56.3l-6.8-14c-2.3-4.8-6.4-8.4-11.4-10.2  c-0.4-0.1-0.8-0.2-1.2-0.4c21.3-13.8,46.9-25.1,75.1-33.3c-0.5,0.6-1,1.3-1.4,2c-2.8,4.5-3.7,9.9-2.5,15.1l3.5,15.3l4,76.5l8-0.4  l-3.8-73.5l24.3-5.6l19.7,64.4l7.6-2.3L183,67l-3.6-15.5c-1.2-5.2-4.4-9.7-8.9-12.5c-1-0.6-2-1.1-3-1.5c23.8-5.2,47.9-8.3,72.2-9.2  c-2.5,3.4-3.8,7.5-3.8,11.7v15.5L220.1,119l7.8,1.9l15.2-61h25.8l15.2,61l7.8-1.9L276,55.5V40c0-4.2-1.3-8.3-3.8-11.7  c24.3,0.9,48.5,4,72.2,9.2c-1.1,0.4-2.1,0.9-3,1.5c-4.5,2.8-7.7,7.3-8.9,12.5L328.9,67l-12.8,43.9l7.7,2.2l11.8-40.4l24.7,5.7  l3.7,41.9l8-0.7L368,75.5l3.4-15c1.2-5.2,0.3-10.6-2.5-15.1c-0.4-0.7-0.9-1.3-1.4-2c28.2,8.2,53.8,19.5,75.1,33.3  c-0.4,0.1-0.8,0.2-1.2,0.4c-5,1.7-9.1,5.4-11.4,10.2l-7,14.4c-1,2-0.1,4.4,1.9,5.3l28.8,14c2,1,4.4,0.1,5.3-1.9c0,0,0,0,0,0l7-14.4  c1.3-2.7,2-5.6,2-8.6c5.9,5.3,11.3,11.1,16.3,17.3L484,192l8,0l0.3-80C492.3,111.1,492,110.2,491.4,109.5z M74.8,90.8l5.2,10.8  L58.4,112l-5.2-10.8c-2.9-6-0.4-13.1,5.6-16S71.9,84.8,74.8,90.8C74.8,90.8,74.8,90.8,74.8,90.8z M171.7,53.3l2.7,11.7L151,70.4  l-2.7-11.7c-1.5-6.5,2.5-12.9,9-14.4c0,0,0,0,0,0c0.9-0.2,1.8-0.3,2.7-0.3C165.6,44,170.4,47.9,171.7,53.3L171.7,53.3z M340.3,53.3  c1.5-6.5,7.9-10.5,14.4-9c6.5,1.5,10.5,7.9,9,14.4L361,70.4L337.6,65L340.3,53.3z M268,40v12h-24V40c0-6.6,5.4-12,12-12  S268,33.4,268,40z M458.8,101.2l-5.2,10.8L432,101.6l5.2-10.8c2.9-6,10.1-8.4,16-5.6C459.2,88.1,461.7,95.3,458.8,101.2z"/><text x="0" y="527" fill="#000000" font-size="5px" font-weight="bold" font-family="'Helvetica Neue', Helvetica, Arial-Unicode, Arial, Sans-serif">Created by WiStudio</text><text x="0" y="532" fill="#000000" font-size="5px" font-weight="bold" font-family="'Helvetica Neue', Helvetica, Arial-Unicode, Arial, Sans-serif">from the Noun Project</text></svg>