<svg xmlns="http://www.w3.org/2000/svg" version="1.1" viewBox="-5.0 -10.0 110.0 135.0">
 <path d="m74.199 43.898c-1.1016-2.8008-4.1992-4.1016-7-3-1.3008 0.5-2.3984 1.6016-2.8984 2.8008-0.5-0.60156-1.1992-1.1992-2-1.5-1.3008-0.60156-2.8008-0.60156-4.1016 0-1.3008 0.5-2.3984 1.6016-3 2.8984 0 0.10156-0.10156 0.19922-0.10156 0.30078-0.39844-0.39844-0.89844-0.69922-1.5-1-1.3008-0.60156-2.8008-0.60156-4.1016 0-1.1992 0.5-2.1016 1.3984-2.6992 2.5l-8.3984-20.898c-1.1016-2.6992-4.1992-4.1016-7-3-2.8008 1.1016-4.1016 4.3008-3 7l1.1016 2.8984s0 0.10156 0.10156 0.10156l13.801 34.301c-4.8984-1.8984-9.6992-2.6992-14.199-2.3984-1.6992 0.10156-5.8984 1.1016-7.5 3.3008-0.60156 0.89844-0.60156 1.6992-0.5 2.1992 0.39844 1.6992 2.3984 2.8008 3.6016 3.3984l32.801 16.102c0.09375 0.097656 0.19531 0.097656 0.39453 0.097656 0.39844 0 0.69922-0.19922 0.89844-0.5 0.19922-0.5 0-1.1016-0.39844-1.3008l-32.398-15.801-0.5-0.30078c-0.69922-0.39844-2.3984-1.3008-2.6016-2.1016 0-0.10156 0-0.30078 0.19922-0.60156 1-1.3984 4.3008-2.3984 6.1016-2.5 4.8984-0.30078 10.102 0.69922 15.398 3.1016 0.10156 0.10156 0.30078 0.10156 0.39844 0.10156h0.10156c0.10156 0 0.19922 0 0.30078-0.10156 0.10156 0 0.10156-0.10156 0.19922-0.10156 0 0 0.10156 0 0.10156-0.10156 0.30078-0.30078 0.39844-0.69922 0.19922-1.1016l-15.699-39.492s0-0.10156-0.10156-0.10156c-0.60156-1.6992 0.19922-3.6016 2-4.3008s3.8008 0.19922 4.5 1.8984l9.8984 24.699 1.1992 2.8984c0.10156 0.19922 0.19922 0.30078 0.30078 0.39844 0 0 0.10156 0 0.10156 0.10156 0.10156 0.10156 0.30078 0.10156 0.5 0.10156 0.10156 0 0.19922 0 0.39844-0.10156 0.10156 0 0.19922-0.10156 0.30078-0.19922 0.10156-0.10156 0.10156-0.10156 0.10156-0.19922l0.10156-0.10156c0-0.10156 0.10156-0.19922 0.10156-0.30078v-0.10156c0-0.10156 0-0.30078-0.10156-0.39844l-1.1992-2.8984c-0.69922-1.6992 0.19922-3.6992 1.8984-4.5 0.80078-0.30078 1.8008-0.30078 2.6016 0 0.80078 0.39844 1.5 1 1.8008 1.8984l0.5 1.3984 1.1016 2.6992c0.19922 0.39844 0.5 0.60156 0.89844 0.60156 0.10156 0 0.19922 0 0.39844-0.10156 0.5-0.19922 0.69922-0.80078 0.5-1.3008l-0.5-1.1992-0.60156-1.5v-0.089844c-0.30078-0.80078-0.30078-1.8008 0-2.6016 0.39844-0.80078 1-1.5 1.8984-1.8008 0.80078-0.30078 1.8008-0.30078 2.6016 0 0.80078 0.39844 1.5 1 1.8008 1.8984l1.1992 2.8984 0.80078 2c0.19922 0.5 0.80078 0.69922 1.3008 0.5s0.69922-0.80078 0.5-1.3008l-1.1016-2.8945c-0.69922-1.8008 0.19922-3.8008 1.8984-4.5 1.8008-0.69922 3.6992 0.10156 4.5 1.8984l9.6992 24c0.30078 0.80078 0.5 1.6992 0.5 2.6016v7.5c0 0.5 0.39844 1 1 1 0.5 0 1-0.39844 1-1v-7.5c0-1.1016-0.19922-2.3008-0.60156-3.3008z"/>
 <path d="m30.699 45.602h0.10156c0.5 0 0.89844-0.30078 1-0.80078 0.10156-0.5-0.30078-1-0.80078-1.1016-5.6016-0.89844-10.301-4.6016-12.398-9.8008-1.6016-4-1.5-8.3008 0.10156-12.199 1.6992-3.8984 4.8008-7 8.6992-8.6016 3.8984-1.6016 8.3008-1.5 12.199 0.10156 3.8984 1.6992 7 4.8008 8.6016 8.6992 2.1016 5.1992 1.3008 11.199-2.1992 15.699-0.30078 0.39844-0.19922 1 0.19922 1.3984 0.39844 0.30078 1 0.19922 1.3984-0.19922 3.8984-5 4.8008-11.801 2.5-17.602-1.8008-4.3984-5.1992-7.8984-9.6016-9.8008-4.3984-1.8984-9.3008-1.8984-13.699-0.19922-4.3984 1.8008-7.8984 5.1992-9.8008 9.6016-1.8984 4.3984-1.8984 9.3008-0.19922 13.699 2.3008 6.0039 7.6992 10.203 13.898 11.105z"/>
 <path d="m44.5 34.398c0.5 0.19922 1.1016 0 1.3008-0.39844 1.6992-3.5 1.8008-7.5 0.39844-11.102-1.3984-3.3984-4-6.1016-7.3984-7.5-3.3984-1.3984-7.1016-1.5-10.5-0.10156-3.3984 1.3984-6.1016 4-7.5 7.3984-1.3984 3.3984-1.5 7.1016-0.10156 10.5 1.3984 3.6016 4.3008 6.3984 8 7.6992 0.10156 0 0.19922 0.10156 0.30078 0.10156 0.39844 0 0.80078-0.19922 0.89844-0.60156 0.19922-0.5-0.10156-1.1016-0.60156-1.3008-3.1016-1.1016-5.6016-3.6016-6.8008-6.6016-1.1992-2.8984-1.1016-6.1016 0.10156-9 1.1992-2.8984 3.5-5.1016 6.5-6.3008 2.8984-1.1992 6.1016-1.1016 9 0.10156 2.8984 1.1992 5.1016 3.5 6.3008 6.3984 1.1992 3.1016 1.1016 6.5-0.30078 9.5-0.29688 0.30859-0.097656 0.91016 0.40234 1.207z"/>
 <path d="m30.602 20.898c1.8984-0.80078 4-0.69922 5.8008 0.10156 1.8984 0.80078 3.3008 2.3008 4.1016 4.1992 0.19922 0.5 0.80078 0.69922 1.3008 0.5s0.69922-0.80078 0.5-1.3008c-1-2.3984-2.8008-4.1992-5.1016-5.1992-2.3984-1-5-1-7.3008-0.10156-2.3984 1-4.1992 2.8008-5.1992 5.1016-1 2.3984-1 5-0.10156 7.3008 0.19922 0.39844 0.5 0.60156 0.89844 0.60156 0.10156 0 0.19922 0 0.39844-0.10156 0.5-0.19922 0.69922-0.80078 0.5-1.3008-0.80078-1.8984-0.69922-4 0.10156-5.8008 0.69922-1.7969 2.1992-3.2969 4.1016-4z"/>
<text x="0.0" y="117.5" font-size="5.0" font-weight="bold" font-family="Arbeit Regular, Helvetica, Arial-Unicode, Arial, Sans-serif" fill="#000000">Created by NAPISAH</text><text x="0.0" y="122.5" font-size="5.0" font-weight="bold" font-family="Arbeit Regular, Helvetica, Arial-Unicode, Arial, Sans-serif" fill="#000000">from Noun Project</text></svg>