<svg xmlns="http://www.w3.org/2000/svg" version="1.1" viewBox="-5.0 -10.0 110.0 135.0">
 <path d="m88.684 11.684c2.5742 0 4.6641 2.0898 4.6641 4.6641v66.852c0 2.5742-2.0898 4.6641-4.6641 4.6641h-77.738c-2.5742 0-4.6641-2.0898-4.6641-4.6641v-66.852c0-2.5742 2.0898-4.6641 4.6641-4.6641zm-54.77 48.949-1.9062 3.3047c-0.42969 0.74219-0.17578 1.6953 0.57031 2.125 0.74219 0.42969 1.6953 0.17578 2.125-0.57031l2.0078-3.4766c3.4844 1.5703 7.375 2.7344 11.492 2.9766v4.3867c0 0.85938 0.69531 1.5547 1.5547 1.5547 0.85938 0 1.5547-0.69531 1.5547-1.5547v-4.3867c4.0938-0.23828 7.9648-1.3906 11.434-2.9492l1.9922 3.4492c0.42969 0.74219 1.3828 1 2.125 0.57031 0.74219-0.42969 1-1.3789 0.57031-2.125l-1.8906-3.2734c4.7305-2.5508 8.4961-5.668 10.734-7.7461l0.023437-0.023438c0.89453-0.87109 1.3984-2.0625 1.3984-3.3086 0-1.2461-0.50391-2.4414-1.3984-3.3086l-0.023437-0.023438c-2.2148-2.0586-5.9258-5.1289-10.586-7.668l1.7422-3.0156c0.42969-0.74219 0.17578-1.6953-0.57031-2.125-0.74219-0.42969-1.6953-0.17578-2.125 0.57031l-1.8359 3.1797c-3.5078-1.5938-7.4336-2.7773-11.586-3.0195v-4.0469c0-0.85938-0.69531-1.5547-1.5547-1.5547s-1.5547 0.69531-1.5547 1.5547v4.0469c-4.1758 0.24219-8.125 1.4375-11.648 3.0469l-1.8516-3.207c-0.42969-0.74219-1.3789-0.99609-2.125-0.57031-0.74219 0.42969-0.99609 1.3828-0.57031 2.125l1.7578 3.0469c-4.6328 2.5312-8.3242 5.5859-10.527 7.6367l-0.027344 0.023438c-0.89453 0.87109-1.3984 2.0625-1.3984 3.3086 0 1.2461 0.50391 2.4414 1.3984 3.3086l0.023437 0.023438c2.2305 2.0742 5.9727 5.1719 10.676 7.7188zm15.84-23.398c10.941 0 20.324 7.5078 24.379 11.27 0.29297 0.28906 0.45313 0.67578 0.45313 1.0742 0 0.39453-0.15625 0.77344-0.42969 1.0547-4.0664 3.7773-13.449 11.293-24.398 11.293-10.945 0-20.324-7.5078-24.379-11.27-0.29297-0.28906-0.45312-0.67578-0.45312-1.0742 0-0.39453 0.15625-0.77344 0.42969-1.0547 4.0664-3.7773 13.449-11.289 24.398-11.289zm0 2.2148c-5.6797 0-10.289 4.6094-10.289 10.289 0 5.6797 4.6094 10.289 10.289 10.289 5.6797 0 10.289-4.6094 10.289-10.289 0-5.6797-4.6094-10.289-10.289-10.289zm0 3.1094c3.9609 0 7.1797 3.2188 7.1797 7.1797 0 3.9609-3.2188 7.1797-7.1797 7.1797-3.9609 0-7.1797-3.2148-7.1797-7.1797 0-3.9609 3.2148-7.1797 7.1797-7.1797zm0 2.7148c-2.4648 0-4.4648 2-4.4648 4.4648 0 2.4648 2 4.4648 4.4648 4.4648s4.4648-2 4.4648-4.4648c0-2.4648-2-4.4648-4.4648-4.4648zm0 3.1094c0.75 0 1.3555 0.60938 1.3555 1.3555 0 0.75-0.60938 1.3555-1.3555 1.3555-0.75 0-1.3555-0.60938-1.3555-1.3555 0-0.75 0.60937-1.3555 1.3555-1.3555zm20.211-26.617h6.2188c0.85938 0 1.5547 0.69531 1.5547 1.5547v6.2188c0 0.85938 0.69531 1.5547 1.5547 1.5547s1.5547-0.69531 1.5547-1.5547v-6.2188c0-2.5742-2.0898-4.6641-4.6641-4.6641h-6.2188c-0.85938 0-1.5547 0.69531-1.5547 1.5547 0 0.85937 0.69531 1.5547 1.5547 1.5547zm0 59.078h6.2188c2.5742 0 4.6641-2.0898 4.6641-4.6641v-6.2188c0-0.85938-0.69531-1.5547-1.5547-1.5547s-1.5547 0.69531-1.5547 1.5547v6.2188c0 0.85937-0.69531 1.5547-1.5547 1.5547h-6.2188c-0.85938 0-1.5547 0.69531-1.5547 1.5547 0 0.85938 0.69531 1.5547 1.5547 1.5547zm-40.422-62.188h-6.2188c-2.5742 0-4.6641 2.0898-4.6641 4.6641v6.2188c0 0.85938 0.69531 1.5547 1.5547 1.5547s1.5547-0.69531 1.5547-1.5547v-6.2188c0-0.85937 0.69531-1.5547 1.5547-1.5547h6.2188c0.85938 0 1.5547-0.69531 1.5547-1.5547 0-0.85938-0.69531-1.5547-1.5547-1.5547zm0 59.078h-6.2188c-0.85938 0-1.5547-0.69531-1.5547-1.5547v-6.2188c0-0.85938-0.69531-1.5547-1.5547-1.5547s-1.5547 0.69531-1.5547 1.5547v6.2188c0 2.5742 2.0898 4.6641 4.6641 4.6641h6.2188c0.85938 0 1.5547-0.69531 1.5547-1.5547 0-0.85937-0.69531-1.5547-1.5547-1.5547z" fill-rule="evenodd"/>
<text x="0.0" y="117.5" font-size="5.0" font-weight="bold" font-family="Arbeit Regular, Helvetica, Arial-Unicode, Arial, Sans-serif" fill="#000000">Created by icelloid</text><text x="0.0" y="122.5" font-size="5.0" font-weight="bold" font-family="Arbeit Regular, Helvetica, Arial-Unicode, Arial, Sans-serif" fill="#000000">from Noun Project</text></svg>